<svg xmlns="http://www.w3.org/2000/svg" width="329" height="248" fill="none"><g clip-path="url(#a)"><rect width="328" height="248" x=".5" fill="#101010" rx="24.018"/><rect width="328" height="248" x=".5" fill="url(#b)" rx="24.018"/><rect width="78.499" height="78.499" x="276.251" y="72.751" fill="url(#c)" rx="15.249"/><rect width="78.499" height="78.499" x="276.251" y="72.751" stroke="url(#d)" stroke-width="1.501" rx="15.249"/><rect width="78.499" height="78.499" x="276.251" y="-23.249" fill="url(#e)" rx="15.249"/><rect width="78.499" height="78.499" x="276.251" y="-23.249" stroke="url(#f)" stroke-width="1.501" rx="15.249"/><rect width="78.499" height="78.499" x="180.251" y="72.751" fill="url(#g)" rx="15.249"/><path fill="#ADADAD" d="M226.813 114.25H224v-4.5h2.813a5.062 5.062 0 1 0-5.063-5.062v2.812h-4.5v-2.812a5.063 5.063 0 1 0-5.062 5.062H215v4.5h-2.812a5.063 5.063 0 1 0 5.062 5.063V116.5h4.5v2.813a5.062 5.062 0 1 0 5.063-5.063zM224 104.688a2.811 2.811 0 0 1 5.571-.549 2.816 2.816 0 0 1-1.196 2.887 2.81 2.81 0 0 1-1.562.474H224v-2.812zm-14.625 0a2.81 2.81 0 0 1 2.813-2.813 2.81 2.81 0 0 1 2.812 2.813v2.812h-2.812a2.81 2.81 0 0 1-2.813-2.812zM215 119.313a2.81 2.81 0 0 1-3.361 2.758 2.808 2.808 0 0 1-2.21-2.21 2.816 2.816 0 0 1 1.196-2.887 2.811 2.811 0 0 1 1.563-.474H215v2.813zm2.25-9.563h4.5v4.5h-4.5v-4.5zm9.563 12.375a2.81 2.81 0 0 1-2.813-2.812V116.5h2.813a2.81 2.81 0 0 1 2.812 2.813 2.81 2.81 0 0 1-2.812 2.812z" opacity=".5"/><rect width="78.499" height="78.499" x="180.251" y="72.751" stroke="url(#h)" stroke-width="1.501" rx="15.249"/><rect width="78.499" height="78.499" x="180.251" y="-23.249" fill="url(#i)" rx="15.249"/><rect width="78.499" height="78.499" x="180.251" y="-23.249" stroke="url(#j)" stroke-width="1.501" rx="15.249"/><rect width="78.499" height="78.499" x="84.251" y="72.751" fill="url(#k)" rx="15.249"/><rect width="78.499" height="78.499" x="84.251" y="72.751" stroke="url(#l)" stroke-width="1.501" rx="15.249"/><rect width="78.499" height="78.499" x="276.251" y="168.751" fill="url(#m)" rx="15.249"/><rect width="78.499" height="78.499" x="276.251" y="168.751" stroke="url(#n)" stroke-width="1.501" rx="15.249"/><rect width="78.499" height="78.499" x="180.251" y="168.751" fill="url(#o)" rx="15.249"/><rect width="78.499" height="78.499" x="180.251" y="168.751" stroke="url(#p)" stroke-width="1.501" rx="15.249"/><rect width="78.499" height="78.499" x="84.251" y="168.751" fill="url(#q)" rx="15.249"/><path fill="#ADADAD" d="M138.125 215.875A1.127 1.127 0 0 1 137 217h-8.868a2.24 2.24 0 0 1-2.012-1.243l-7.252-14.507H110a1.126 1.126 0 0 1-1.125-1.125A1.123 1.123 0 0 1 110 199h8.868a2.24 2.24 0 0 1 2.012 1.243l7.252 14.507H137a1.123 1.123 0 0 1 1.125 1.125zm-11.25-14.625H137a1.126 1.126 0 0 0 1.125-1.125A1.123 1.123 0 0 0 137 199h-10.125a1.123 1.123 0 0 0-1.125 1.125 1.127 1.127 0 0 0 1.125 1.125z" opacity=".5"/><rect width="78.499" height="78.499" x="84.251" y="168.751" stroke="url(#r)" stroke-width="1.501" rx="15.249"/><rect width="78.499" height="78.499" x="-11.749" y="168.751" fill="url(#s)" rx="15.249"/><rect width="78.499" height="78.499" x="-11.749" y="168.751" stroke="url(#t)" stroke-width="1.501" rx="15.249"/><path fill="#ADADAD" d="M28.562 39.273a1.784 1.784 0 0 0-.83-1.341c-.485-.318-1.08-.477-1.784-.477-.515 0-.966.083-1.352.25a2.16 2.16 0 0 0-.898.687 1.648 1.648 0 0 0-.318.994c0 .311.074.578.222.801.151.22.344.404.58.552.234.144.48.263.738.358.257.09.494.164.71.221l1.182.318c.303.08.64.19 1.011.33.375.14.733.331 1.074.574.345.238.629.545.852.92.224.375.335.835.335 1.38 0 .63-.164 1.198-.494 1.705-.326.508-.803.911-1.432 1.21-.625.3-1.384.45-2.278.45-.833 0-1.555-.135-2.165-.404-.606-.269-1.083-.644-1.432-1.125A3.209 3.209 0 0 1 21.698 45h1.455c.038.44.185.803.443 1.09a2.4 2.4 0 0 0 .988.637c.402.137.834.205 1.296.205.538 0 1.02-.087 1.449-.262.428-.178.767-.424 1.017-.738.25-.318.375-.69.375-1.114 0-.386-.108-.7-.324-.943-.216-.242-.5-.44-.852-.59a8.947 8.947 0 0 0-1.142-.399l-1.432-.409c-.91-.261-1.629-.634-2.16-1.119-.53-.485-.795-1.12-.795-1.903 0-.652.177-1.22.529-1.705a3.51 3.51 0 0 1 1.432-1.136c.602-.273 1.274-.41 2.017-.41.75 0 1.416.135 2 .404.583.265 1.045.629 1.386 1.09.345.463.527.988.545 1.575h-1.363zm4.998 3.477V48h-1.34V36.364h1.34v4.272h.114c.205-.45.511-.808.92-1.074.413-.268.963-.403 1.648-.403.595 0 1.116.12 1.563.358.447.235.793.597 1.04 1.085.25.485.374 1.103.374 1.853V48h-1.34v-5.455c0-.693-.18-1.229-.54-1.608-.356-.382-.85-.573-1.483-.573-.44 0-.834.092-1.182.278a2.036 2.036 0 0 0-.818.813c-.197.356-.296.787-.296 1.295zm11.658 5.432c-.788 0-1.48-.188-2.074-.563-.59-.375-1.053-.9-1.386-1.574-.33-.674-.495-1.462-.495-2.363 0-.91.165-1.703.495-2.38.333-.679.795-1.205 1.386-1.58.595-.375 1.286-.563 2.074-.563.788 0 1.477.188 2.068.563.595.375 1.057.901 1.387 1.58.333.677.5 1.47.5 2.38 0 .901-.167 1.69-.5 2.363a3.77 3.77 0 0 1-1.387 1.574c-.59.375-1.28.563-2.068.563zm0-1.205c.598 0 1.09-.153 1.477-.46.387-.307.673-.71.858-1.21.186-.5.279-1.042.279-1.625 0-.584-.093-1.127-.279-1.63a2.749 2.749 0 0 0-.858-1.222c-.386-.311-.879-.466-1.477-.466-.598 0-1.09.155-1.477.466-.387.31-.673.717-.858 1.221a4.681 4.681 0 0 0-.279 1.63c0 .584.093 1.126.279 1.626.185.5.471.903.858 1.21.386.307.879.46 1.477.46zM51.219 48v-8.727h1.296v1.318h.09c.16-.432.448-.782.864-1.051a2.541 2.541 0 0 1 1.41-.404c.098 0 .221.002.369.006s.26.01.335.017v1.364a4.008 4.008 0 0 0-.312-.051 3.077 3.077 0 0 0-.506-.04c-.424 0-.803.089-1.136.267-.33.174-.591.416-.785.727a1.96 1.96 0 0 0-.284 1.051V48h-1.34zm10.296-8.727v1.136h-4.523v-1.136h4.523zm-3.205-2.091h1.341V45.5c0 .379.055.663.165.852.114.186.258.31.432.375.178.06.365.091.562.091.148 0 .27-.007.364-.023l.227-.045.273 1.205a2.72 2.72 0 0 1-.38.102c-.164.038-.37.057-.62.057a2.7 2.7 0 0 1-1.114-.245 2.213 2.213 0 0 1-.897-.744c-.235-.333-.353-.754-.353-1.261v-8.682zm8.674 11c-.819 0-1.523-.193-2.114-.58a3.777 3.777 0 0 1-1.364-1.596c-.318-.678-.477-1.453-.477-2.324 0-.887.163-1.669.489-2.347.33-.682.788-1.214 1.375-1.596.59-.387 1.28-.58 2.068-.58.614 0 1.167.114 1.659.341.492.227.896.545 1.21.955.315.409.51.886.585 1.431h-1.34c-.103-.397-.33-.75-.682-1.056-.349-.311-.818-.466-1.41-.466-.522 0-.98.136-1.374.409-.39.269-.695.65-.915 1.142-.216.488-.324 1.062-.324 1.721 0 .675.106 1.262.318 1.762.216.5.52.888.91 1.164.393.277.855.415 1.386.415.348 0 .664-.06.949-.181.284-.122.524-.296.721-.523.197-.228.337-.5.42-.819h1.341a3.1 3.1 0 0 1-.562 1.393 3.15 3.15 0 0 1-1.176.977c-.485.239-1.05.358-1.693.358zm10.892-3.75v-5.16h1.34V48h-1.34v-1.477h-.091c-.205.443-.523.82-.955 1.13-.432.307-.977.46-1.636.46-.546 0-1.03-.119-1.455-.357-.424-.243-.757-.606-1-1.091-.242-.489-.363-1.104-.363-1.847v-5.545h1.34v5.454c0 .637.179 1.144.535 1.523.36.379.818.568 1.375.568a2.29 2.29 0 0 0 1.017-.255c.348-.171.64-.432.875-.785.238-.352.358-.8.358-1.346zm7.592-5.16v1.137h-4.523v-1.136h4.523zm-3.205-2.09h1.341V45.5c0 .379.055.663.165.852.114.186.258.31.432.375.178.06.366.091.563.091.147 0 .268-.007.363-.023l.227-.045.273 1.205a2.72 2.72 0 0 1-.38.102 2.8 2.8 0 0 1-.62.057 2.7 2.7 0 0 1-1.114-.245 2.212 2.212 0 0 1-.897-.744c-.235-.333-.353-.754-.353-1.261v-8.682zm11.248 4.045-1.205.341a2.234 2.234 0 0 0-.335-.585 1.627 1.627 0 0 0-.591-.477c-.25-.125-.57-.188-.96-.188-.534 0-.98.123-1.335.37-.353.242-.529.55-.529.926 0 .333.121.596.364.79.242.193.621.354 1.136.482l1.296.319c.78.189 1.361.479 1.744.869.382.386.574.884.574 1.494 0 .5-.144.947-.432 1.341-.284.394-.682.705-1.193.932-.512.227-1.106.34-1.784.34-.89 0-1.627-.192-2.21-.579-.584-.386-.953-.95-1.109-1.693l1.273-.318c.121.47.35.822.688 1.057.34.235.786.352 1.335.352.625 0 1.121-.133 1.489-.398.37-.269.556-.59.556-.966 0-.303-.106-.556-.318-.761-.212-.208-.538-.364-.977-.466l-1.455-.34c-.799-.19-1.386-.484-1.761-.882-.371-.401-.557-.903-.557-1.505 0-.493.138-.928.415-1.307a2.82 2.82 0 0 1 1.142-.892c.485-.216 1.034-.324 1.648-.324.863 0 1.541.19 2.034.568.496.38.848.88 1.057 1.5z"/></g><rect width="326.499" height="246.499" x="1.251" y=".751" stroke="url(#u)" stroke-width="1.501" rx="23.268"/><defs><linearGradient id="b" x1="-60.852" x2="198.444" y1="-49.6" y2="333.801" gradientUnits="userSpaceOnUse"><stop offset=".064" stop-color="#1A1A1A"/><stop offset=".499" stop-color="#101010"/><stop offset="1" stop-color="#101010" stop-opacity="0"/></linearGradient><linearGradient id="c" x1="366" x2="275.193" y1="159" y2="61.787" gradientUnits="userSpaceOnUse"><stop offset=".064" stop-color="#1A1A1A"/><stop offset=".499" stop-color="#101010"/><stop offset="1" stop-color="#101010" stop-opacity="0"/></linearGradient><linearGradient id="d" x1="272.838" x2="352.654" y1="70.421" y2="157.268" gradientUnits="userSpaceOnUse"><stop stop-color="#2F2F2F"/><stop offset=".642" stop-color="#101010" stop-opacity="0"/></linearGradient><linearGradient id="e" x1="366" x2="275.193" y1="63" y2="-34.213" gradientUnits="userSpaceOnUse"><stop offset=".064" stop-color="#1A1A1A"/><stop offset=".499" stop-color="#101010"/><stop offset="1" stop-color="#101010" stop-opacity="0"/></linearGradient><linearGradient id="f" x1="272.838" x2="352.654" y1="-25.579" y2="61.268" gradientUnits="userSpaceOnUse"><stop stop-color="#2F2F2F"/><stop offset=".642" stop-color="#101010" stop-opacity="0"/></linearGradient><linearGradient id="g" x1="270" x2="179.193" y1="159" y2="61.787" gradientUnits="userSpaceOnUse"><stop offset=".064" stop-color="#1A1A1A"/><stop offset=".499" stop-color="#101010"/><stop offset="1" stop-color="#101010" stop-opacity="0"/></linearGradient><linearGradient id="h" x1="176.838" x2="256.654" y1="70.421" y2="157.268" gradientUnits="userSpaceOnUse"><stop stop-color="#6F8EFF"/><stop offset=".642" stop-color="#101010" stop-opacity="0"/></linearGradient><linearGradient id="i" x1="270" x2="179.193" y1="63" y2="-34.213" gradientUnits="userSpaceOnUse"><stop offset=".064" stop-color="#1A1A1A"/><stop offset=".499" stop-color="#101010"/><stop offset="1" stop-color="#101010" stop-opacity="0"/></linearGradient><linearGradient id="j" x1="176.838" x2="256.654" y1="-25.579" y2="61.268" gradientUnits="userSpaceOnUse"><stop stop-color="#2F2F2F"/><stop offset=".642" stop-color="#101010" stop-opacity="0"/></linearGradient><linearGradient id="k" x1="174" x2="83.193" y1="159" y2="61.787" gradientUnits="userSpaceOnUse"><stop offset=".064" stop-color="#1A1A1A"/><stop offset=".499" stop-color="#101010"/><stop offset="1" stop-color="#101010" stop-opacity="0"/></linearGradient><linearGradient id="l" x1="80.838" x2="160.654" y1="70.421" y2="157.268" gradientUnits="userSpaceOnUse"><stop stop-color="#2F2F2F"/><stop offset=".642" stop-color="#101010" stop-opacity="0"/></linearGradient><linearGradient id="m" x1="366" x2="275.193" y1="255" y2="157.787" gradientUnits="userSpaceOnUse"><stop offset=".064" stop-color="#1A1A1A"/><stop offset=".499" stop-color="#101010"/><stop offset="1" stop-color="#101010" stop-opacity="0"/></linearGradient><linearGradient id="n" x1="272.838" x2="352.654" y1="166.421" y2="253.268" gradientUnits="userSpaceOnUse"><stop stop-color="#2F2F2F"/><stop offset=".642" stop-color="#101010" stop-opacity="0"/></linearGradient><linearGradient id="o" x1="270" x2="179.193" y1="255" y2="157.787" gradientUnits="userSpaceOnUse"><stop offset=".064" stop-color="#1A1A1A"/><stop offset=".499" stop-color="#101010"/><stop offset="1" stop-color="#101010" stop-opacity="0"/></linearGradient><linearGradient id="p" x1="176.838" x2="256.654" y1="166.421" y2="253.268" gradientUnits="userSpaceOnUse"><stop stop-color="#2F2F2F"/><stop offset=".642" stop-color="#101010" stop-opacity="0"/></linearGradient><linearGradient id="q" x1="174" x2="83.193" y1="255" y2="157.787" gradientUnits="userSpaceOnUse"><stop offset=".064" stop-color="#1A1A1A"/><stop offset=".499" stop-color="#101010"/><stop offset="1" stop-color="#101010" stop-opacity="0"/></linearGradient><linearGradient id="r" x1="80.838" x2="160.654" y1="166.421" y2="253.268" gradientUnits="userSpaceOnUse"><stop stop-color="#6F8EFF"/><stop offset=".642" stop-color="#101010" stop-opacity="0"/></linearGradient><linearGradient id="s" x1="78" x2="-12.807" y1="255" y2="157.787" gradientUnits="userSpaceOnUse"><stop offset=".064" stop-color="#1A1A1A"/><stop offset=".499" stop-color="#101010"/><stop offset="1" stop-color="#101010" stop-opacity="0"/></linearGradient><linearGradient id="t" x1="-15.162" x2="64.654" y1="166.421" y2="253.268" gradientUnits="userSpaceOnUse"><stop stop-color="#2F2F2F"/><stop offset=".642" stop-color="#101010" stop-opacity="0"/></linearGradient><linearGradient id="u" x1="-10.414" x2="222.31" y1="-4.895" y2="330.014" gradientUnits="userSpaceOnUse"><stop stop-color="#2F2F2F"/><stop offset=".642" stop-color="#101010" stop-opacity="0"/></linearGradient><clipPath id="a"><rect width="328" height="248" x=".5" fill="#fff" rx="24.018"/></clipPath></defs></svg>