<svg xmlns="http://www.w3.org/2000/svg" width="333" height="250" fill="none"><path fill="#101010" d="M2.5 0h328v248H2.5z"/><g opacity=".48"><rect width="233.691" height="147.691" x="49.655" y="2.155" fill="url(#a)" rx="27.897"/><rect width="233.691" height="147.691" x="49.655" y="2.155" stroke="url(#b)" stroke-width="1.691" rx="27.897"/></g><g opacity=".64"><rect width="281.691" height="147.691" x="25.655" y="18.155" fill="url(#c)" rx="27.897"/><rect width="281.691" height="147.691" x="25.655" y="18.155" stroke="url(#d)" stroke-width="1.691" rx="27.897"/></g><rect width="329.691" height="214.811" x="1.655" y="34.155" fill="#101010" rx="27.897"/><rect width="329.691" height="214.811" x="1.655" y="34.155" fill="url(#e)" rx="27.897"/><path stroke="#6F8EFF" stroke-linecap="round" stroke-width="1.691" d="M29.55 142.229s10.798-2.355 23.073 3.303c23.347 10.763 24.679-8.946 33.336-18.449 7.92-8.695 14.48-3.39 23.299 7.243 6.504 7.842 15.983 21.005 25.8 18.886 8.974-1.937 15.335-17.376 27.773-21.303 9.858-3.111 17.87 5.438 29.221 2.417 15.4-4.099 17.694-19.798 28.7-19.798 13.583 0 22.091 28.014 34.448 28.014 12.285 0 18.605-27.694 32.042-19.287 10.274 6.428 16.206-17.155 16.206-17.155"/><path fill="#ADADAD" d="M33.425 70.889v11.636h-1.363L25.72 73.39h-.114v9.136h-1.409V70.89h1.364l6.363 9.16h.114v-9.16h1.386zm6.297 11.818c-.84 0-1.566-.185-2.176-.557a3.737 3.737 0 0 1-1.403-1.568c-.326-.674-.489-1.458-.489-2.352 0-.894.163-1.682.489-2.364.33-.685.788-1.22 1.375-1.602.59-.386 1.28-.58 2.068-.58.455 0 .903.076 1.346.228.444.151.847.397 1.21.738.364.337.654.784.87 1.341.216.557.324 1.243.324 2.057v.568h-6.727v-1.159h5.363a2.86 2.86 0 0 0-.295-1.318 2.226 2.226 0 0 0-.83-.915c-.356-.223-.776-.335-1.261-.335-.534 0-.996.133-1.386.398a2.616 2.616 0 0 0-.893 1.022 3.01 3.01 0 0 0-.312 1.353v.772c0 .66.114 1.218.34 1.677.232.454.552.8.961 1.04.41.234.885.352 1.426.352.353 0 .67-.05.955-.148.288-.102.536-.254.744-.455.209-.204.37-.458.483-.761l1.296.364a2.88 2.88 0 0 1-.688 1.159 3.34 3.34 0 0 1-1.193.772 4.426 4.426 0 0 1-1.597.273zm7.631-.182-2.66-8.727h1.41l1.886 6.682h.091l1.864-6.682h1.432l1.84 6.66h.091l1.887-6.66h1.409l-2.66 8.727h-1.317l-1.91-6.704h-.136l-1.909 6.704h-1.318zm22.068-8.727a1.784 1.784 0 0 0-.83-1.34c-.484-.319-1.079-.478-1.783-.478-.516 0-.966.083-1.353.25a2.16 2.16 0 0 0-.897.687 1.648 1.648 0 0 0-.319.995c0 .31.074.577.222.8.151.22.345.404.58.552.234.144.48.263.738.358.258.09.494.165.71.222l1.182.318c.303.08.64.19 1.011.33.376.14.733.33 1.074.573.345.239.63.546.853.92.223.376.335.836.335 1.381 0 .63-.165 1.197-.494 1.705-.326.507-.803.91-1.432 1.21-.625.3-1.385.449-2.279.449-.833 0-1.555-.135-2.164-.404-.607-.268-1.084-.643-1.432-1.124a3.21 3.21 0 0 1-.586-1.677h1.455c.038.44.186.803.443 1.091a2.4 2.4 0 0 0 .989.637c.401.136.833.204 1.295.204.538 0 1.021-.087 1.45-.261.427-.178.766-.424 1.016-.739.25-.318.375-.69.375-1.113 0-.387-.108-.701-.324-.944a2.376 2.376 0 0 0-.852-.59 8.953 8.953 0 0 0-1.142-.398l-1.432-.41c-.909-.26-1.629-.634-2.159-1.119-.53-.484-.795-1.119-.795-1.903 0-.652.176-1.22.528-1.705a3.511 3.511 0 0 1 1.432-1.136c.602-.273 1.275-.41 2.017-.41.75 0 1.417.135 2 .404.583.266 1.045.63 1.386 1.091.345.462.527.987.546 1.574H69.42zm9.158 5.16v-5.16h1.34v8.727h-1.34v-1.477h-.091c-.205.443-.523.82-.955 1.13-.431.308-.977.461-1.636.461-.545 0-1.03-.12-1.455-.358-.424-.242-.757-.606-1-1.09-.242-.49-.363-1.105-.363-1.847v-5.546h1.34v5.455c0 .636.179 1.144.535 1.522.36.38.818.569 1.375.569.333 0 .672-.086 1.017-.256.348-.17.64-.432.875-.784.239-.353.358-.801.358-1.347zm3.979 3.567V70.89h1.34v4.296h.114c.099-.152.235-.345.41-.58.177-.239.431-.45.76-.636.334-.19.785-.284 1.353-.284.735 0 1.382.183 1.943.55.56.368.998.889 1.313 1.563.314.674.471 1.47.471 2.386 0 .925-.157 1.726-.472 2.404-.314.674-.75 1.197-1.306 1.568-.557.367-1.2.551-1.926.551-.561 0-1.01-.093-1.347-.278-.337-.19-.597-.404-.778-.642a8.623 8.623 0 0 1-.42-.603h-.16v1.341h-1.295zm1.318-4.363c0 .659.096 1.24.29 1.744.193.5.475.892.846 1.176.371.28.826.42 1.364.42.56 0 1.028-.147 1.403-.442.379-.3.663-.701.852-1.205a4.71 4.71 0 0 0 .29-1.693c0-.614-.095-1.167-.284-1.66-.186-.495-.468-.888-.847-1.175-.375-.292-.846-.438-1.414-.438-.546 0-1.004.138-1.375.415-.372.272-.652.655-.841 1.147-.19.49-.284 1.06-.284 1.71zm14.619-2.41-1.205.342a2.24 2.24 0 0 0-.335-.586 1.628 1.628 0 0 0-.59-.477c-.25-.125-.57-.187-.96-.187-.535 0-.98.123-1.336.369-.352.242-.529.551-.529.926 0 .333.122.597.364.79.243.193.621.354 1.136.483l1.296.318c.78.19 1.362.48 1.744.87.383.386.574.884.574 1.494 0 .5-.144.947-.432 1.34-.284.394-.681.705-1.193.932-.511.228-1.106.341-1.784.341-.89 0-1.627-.193-2.21-.58-.584-.386-.953-.95-1.108-1.692l1.273-.319c.12.47.35.822.687 1.057.341.235.786.352 1.335.352.625 0 1.122-.132 1.489-.397.371-.27.557-.591.557-.966 0-.303-.106-.557-.318-.762-.213-.208-.538-.363-.978-.466l-1.454-.34c-.8-.19-1.387-.483-1.762-.881-.37-.402-.556-.903-.556-1.506 0-.492.138-.928.414-1.307.28-.378.661-.676 1.142-.892.485-.216 1.034-.323 1.648-.323.864 0 1.542.189 2.034.568.496.379.849.879 1.057 1.5zm5.723 6.955c-.818 0-1.523-.193-2.114-.58a3.774 3.774 0 0 1-1.363-1.596c-.318-.678-.478-1.453-.478-2.324 0-.886.163-1.668.489-2.346.33-.682.788-1.214 1.375-1.597.591-.386 1.28-.58 2.068-.58a3.91 3.91 0 0 1 1.659.341 3.18 3.18 0 0 1 1.211.955c.314.409.509.886.585 1.432h-1.341c-.102-.398-.33-.75-.682-1.057-.348-.31-.818-.466-1.409-.466-.523 0-.981.136-1.375.41-.39.268-.695.649-.915 1.141-.216.489-.324 1.063-.324 1.722 0 .674.106 1.261.319 1.761.215.5.519.888.909 1.165.394.276.856.415 1.386.415.349 0 .665-.06.949-.182a1.948 1.948 0 0 0 1.142-1.341h1.341a3.101 3.101 0 0 1-1.739 2.37c-.485.238-1.049.357-1.693.357zm5.392-.182v-8.727h1.296v1.318h.09a2.1 2.1 0 0 1 .864-1.05 2.541 2.541 0 0 1 1.409-.404c.099 0 .222.002.369.005.148.004.26.01.336.017v1.364a4.073 4.073 0 0 0-.313-.051 3.068 3.068 0 0 0-.505-.04c-.425 0-.803.09-1.137.267a2.016 2.016 0 0 0-.784.727 1.963 1.963 0 0 0-.284 1.052v5.522h-1.341zm5.953 0v-8.727h1.341v8.727h-1.341zm.682-10.181a.953.953 0 0 1-.676-.267.857.857 0 0 1-.279-.642c0-.25.093-.465.279-.643a.953.953 0 0 1 .676-.267c.261 0 .485.09.67.267.19.178.285.392.285.642s-.095.465-.285.642a.932.932 0 0 1-.67.268zm3.297 10.181V70.89h1.341v4.296h.113c.099-.152.235-.345.41-.58.178-.239.431-.45.761-.636.333-.19.784-.284 1.352-.284.735 0 1.383.183 1.943.55.561.368.998.889 1.313 1.563.314.674.471 1.47.471 2.386 0 .925-.157 1.726-.471 2.404-.315.674-.75 1.197-1.307 1.568-.557.367-1.199.551-1.926.551-.561 0-1.01-.093-1.347-.278-.337-.19-.596-.404-.778-.642a8.77 8.77 0 0 1-.421-.603h-.159v1.341h-1.295zm1.318-4.363c0 .659.097 1.24.29 1.744.193.5.475.892.846 1.176.372.28.826.42 1.364.42.561 0 1.028-.147 1.403-.442.379-.3.663-.701.853-1.205a4.73 4.73 0 0 0 .29-1.693c0-.614-.095-1.167-.285-1.66-.185-.495-.467-.888-.846-1.175-.375-.292-.847-.438-1.415-.438-.545 0-1.004.138-1.375.415-.371.272-.651.655-.841 1.147-.189.49-.284 1.06-.284 1.71zm12.097 4.545c-.841 0-1.567-.185-2.176-.557a3.735 3.735 0 0 1-1.404-1.568c-.326-.674-.489-1.458-.489-2.352 0-.894.163-1.682.489-2.364.33-.685.788-1.22 1.375-1.602.591-.386 1.28-.58 2.068-.58.455 0 .904.076 1.347.228a3.34 3.34 0 0 1 1.21.738c.364.337.654.784.869 1.341.216.557.324 1.243.324 2.057v.568h-6.727v-1.159h5.364a2.86 2.86 0 0 0-.296-1.318 2.223 2.223 0 0 0-.829-.915c-.356-.223-.777-.335-1.262-.335-.534 0-.996.133-1.386.398a2.615 2.615 0 0 0-.892 1.022 3.01 3.01 0 0 0-.313 1.353v.772c0 .66.114 1.218.341 1.677.231.454.551.8.961 1.04.409.234.884.352 1.426.352.352 0 .67-.05.954-.148a2.05 2.05 0 0 0 .745-.455 2.06 2.06 0 0 0 .482-.761l1.296.364a2.87 2.87 0 0 1-.688 1.159 3.33 3.33 0 0 1-1.193.772 4.42 4.42 0 0 1-1.596.273zm5.653-.182v-8.727h1.296v1.318h.09a2.1 2.1 0 0 1 .864-1.05 2.541 2.541 0 0 1 1.409-.404c.099 0 .222.002.369.005.148.004.26.01.336.017v1.364a4.073 4.073 0 0 0-.313-.051 3.068 3.068 0 0 0-.505-.04c-.425 0-.803.09-1.137.267a2.016 2.016 0 0 0-.784.727 1.963 1.963 0 0 0-.284 1.052v5.522h-1.341zm12.135-6.772-1.205.34a2.208 2.208 0 0 0-.335-.585 1.628 1.628 0 0 0-.591-.477c-.25-.125-.57-.187-.96-.187-.534 0-.979.123-1.335.369-.352.242-.529.551-.529.926 0 .333.122.597.364.79.243.193.621.354 1.136.483l1.296.318c.78.19 1.362.48 1.744.87.383.386.574.884.574 1.494 0 .5-.144.947-.432 1.34-.284.394-.682.705-1.193.932-.511.228-1.106.341-1.784.341-.89 0-1.627-.193-2.21-.58-.584-.386-.953-.95-1.108-1.692l1.273-.319c.121.47.35.822.687 1.057.341.235.786.352 1.335.352.625 0 1.122-.132 1.489-.397.371-.27.557-.591.557-.966 0-.303-.106-.557-.318-.762-.213-.208-.538-.363-.978-.466l-1.454-.34c-.799-.19-1.387-.483-1.762-.881-.371-.402-.556-.903-.556-1.506 0-.492.138-.928.414-1.307a2.829 2.829 0 0 1 1.142-.892c.485-.216 1.034-.323 1.648-.323.864 0 1.542.189 2.034.568.496.379.849.879 1.057 1.5z"/><path fill="#FAFAFB" d="M30.378 191.416v-13.295h3.017v13.295h-3.017zm-5.14-5.139v-3.016h13.296v3.016H25.239zm17.146 4.64v-2.834l8.348-13.189h2.363v4.034h-1.441l-5.62 8.905v.154h11.653v2.93H42.384zm9.385 3.65v-4.515l.038-1.268v-13.89h3.363v19.673h-3.4zm8.987 0v-2.574l6.83-6.696a31.725 31.725 0 0 0 1.633-1.758c.436-.512.762-1.008.98-1.489.218-.48.326-.992.326-1.537 0-.621-.14-1.153-.422-1.594a2.804 2.804 0 0 0-1.162-1.038c-.494-.243-1.054-.365-1.682-.365-.647 0-1.213.135-1.7.404a2.776 2.776 0 0 0-1.133 1.123c-.263.487-.394 1.067-.394 1.739H60.64c0-1.249.285-2.334.855-3.256a5.767 5.767 0 0 1 2.353-2.143c1.006-.505 2.158-.758 3.458-.758 1.32 0 2.479.246 3.478.739.999.493 1.774 1.169 2.325 2.027.557.858.835 1.838.835 2.94 0 .736-.14 1.46-.422 2.171-.282.711-.778 1.498-1.49 2.363-.704.865-1.693 1.912-2.968 3.141l-3.39 3.449v.134h8.568v2.978H60.756zm24.073.375c-1.581 0-2.94-.4-4.073-1.201-1.127-.807-1.995-1.969-2.603-3.487-.602-1.524-.903-3.359-.903-5.504.006-2.146.31-3.971.913-5.476.608-1.511 1.476-2.664 2.603-3.458 1.133-.794 2.488-1.191 4.063-1.191 1.576 0 2.93.397 4.064 1.191 1.133.794 2.001 1.947 2.603 3.458.609 1.511.913 3.337.913 5.476 0 2.151-.304 3.99-.913 5.514-.602 1.518-1.47 2.677-2.603 3.477-1.127.801-2.482 1.201-4.064 1.201zm0-3.007c1.23 0 2.2-.605 2.911-1.815.717-1.217 1.076-3.007 1.076-5.37 0-1.563-.163-2.876-.49-3.939-.326-1.063-.788-1.864-1.383-2.402a3.03 3.03 0 0 0-2.114-.816c-1.223 0-2.19.608-2.9 1.825-.712 1.211-1.07 2.988-1.077 5.332-.006 1.569.15 2.888.471 3.957.327 1.07.788 1.877 1.383 2.421a3.06 3.06 0 0 0 2.123.807zm18.774-17.041v19.673h-3.564v-16.206h-.116l-4.601 2.94v-3.266l4.89-3.141h3.391z"/><rect width="109.289" height="24.144" x="22.789" y="211.712" fill="#000" fill-opacity=".5" rx="6.763"/><path fill="#55E6A5" d="m31.243 221.248 3.381 5.072h-6.763l3.382-5.072z"/><path fill="#ADADAD" fill-opacity=".75" d="M41.805 227.902c-.555 0-1.05-.095-1.483-.286a2.537 2.537 0 0 1-1.03-.794 2.138 2.138 0 0 1-.412-1.19h1.06c.022.278.117.517.285.719.168.199.388.353.66.462.272.11.573.164.903.164.37 0 .698-.064.984-.193.286-.129.51-.308.672-.538.163-.23.244-.496.244-.799 0-.316-.078-.595-.235-.836a1.562 1.562 0 0 0-.69-.572c-.302-.137-.672-.205-1.11-.205h-.688v-.925h.689c.342 0 .641-.062.9-.185a1.398 1.398 0 0 0 .832-1.311c0-.292-.065-.545-.194-.761a1.317 1.317 0 0 0-.546-.504 1.762 1.762 0 0 0-.824-.181c-.297 0-.577.055-.84.164a1.57 1.57 0 0 0-.64.466 1.217 1.217 0 0 0-.268.732h-1.009a2.05 2.05 0 0 1 .408-1.185 2.57 2.57 0 0 1 1-.799c.415-.191.87-.286 1.366-.286.532 0 .989.108 1.37.324.381.213.674.494.878.845.205.35.307.728.307 1.134 0 .485-.127.898-.382 1.24a1.933 1.933 0 0 1-1.03.71v.068c.544.089.968.32 1.273.693.306.37.459.828.459 1.374 0 .468-.128.889-.383 1.261a2.59 2.59 0 0 1-1.034.874c-.437.213-.934.32-1.492.32zm4.74-.118v-.756l2.841-3.11c.334-.365.608-.681.824-.95.216-.272.376-.527.48-.765a1.86 1.86 0 0 0 .159-.757 1.4 1.4 0 0 0-.219-.786 1.415 1.415 0 0 0-.588-.512 1.9 1.9 0 0 0-.84-.181c-.331 0-.62.069-.866.206a1.418 1.418 0 0 0-.568.567 1.78 1.78 0 0 0-.197.858h-.992c0-.505.116-.947.349-1.328.232-.381.549-.678.95-.891.403-.213.855-.32 1.357-.32.504 0 .951.107 1.34.32.39.213.695.5.917.861.221.362.332.764.332 1.206 0 .317-.057.627-.172.929-.113.3-.309.635-.589 1.005-.277.367-.662.815-1.156 1.345l-1.933 2.067v.068h4.001v.924h-5.43zm11.666-1.614v-.454c0-.313.065-.601.194-.861.131-.264.322-.474.571-.631.252-.159.558-.239.916-.239.365 0 .67.08.917.239a1.5 1.5 0 0 1 .559.631c.126.26.189.548.189.861v.454c0 .314-.065.603-.194.866a1.528 1.528 0 0 1-.563.631c-.246.156-.549.235-.907.235-.365 0-.672-.079-.92-.235-.25-.16-.44-.37-.568-.631a1.942 1.942 0 0 1-.194-.866zm.858-.454v.454c0 .261.061.495.185.702.123.205.336.307.639.307.294 0 .501-.102.622-.307.123-.207.184-.441.184-.702v-.454c0-.26-.058-.493-.176-.697-.118-.208-.328-.311-.63-.311-.295 0-.506.103-.635.311a1.3 1.3 0 0 0-.19.697zm-5.144-4.471v-.454c0-.314.064-.601.193-.862.132-.263.322-.473.572-.63.252-.16.557-.24.916-.24.364 0 .67.08.916.24a1.5 1.5 0 0 1 .559.63c.126.261.189.548.189.862v.454c0 .313-.064.602-.193.865a1.527 1.527 0 0 1-.563.631c-.247.157-.55.235-.908.235-.364 0-.671-.078-.92-.235-.25-.16-.44-.37-.568-.631a1.94 1.94 0 0 1-.193-.865zm.857-.454v.454c0 .26.062.494.185.702.123.204.336.306.639.306.294 0 .501-.102.622-.306a1.35 1.35 0 0 0 .185-.702v-.454c0-.261-.06-.493-.177-.698-.118-.207-.328-.311-.63-.311-.294 0-.506.104-.635.311a1.304 1.304 0 0 0-.189.698zm-.538 6.993 5.917-8.607h.959l-5.918 8.607h-.958zm15.574-6.455v.84h-3.345v-.84h3.345zm-2.37-1.547h.992v6.153c0 .28.04.49.121.63a.63.63 0 0 0 .32.278c.132.045.27.067.416.067.11 0 .199-.006.269-.017l.168-.033.202.891a2.05 2.05 0 0 1-.282.075 2.07 2.07 0 0 1-.458.042c-.28 0-.555-.06-.824-.18a1.638 1.638 0 0 1-.664-.551c-.173-.247-.26-.558-.26-.933v-6.422zm5.105 4.119v3.883h-.992v-8.607h.992v3.16h.085a1.82 1.82 0 0 1 .68-.794c.306-.199.712-.298 1.22-.298.439 0 .824.088 1.155.264.33.174.587.442.769.803.185.359.277.815.277 1.37v4.102h-.992v-4.034c0-.513-.133-.91-.399-1.19-.263-.283-.629-.424-1.097-.424-.325 0-.616.068-.874.206a1.5 1.5 0 0 0-.605.601c-.146.263-.219.582-.219.958zm6.114 3.883v-6.455h.992v6.455h-.992zm.504-7.531a.704.704 0 0 1-.5-.198.634.634 0 0 1-.206-.475c0-.185.069-.343.206-.475a.708.708 0 0 1 .5-.197c.193 0 .359.066.496.197.14.132.21.29.21.475s-.07.344-.21.475a.69.69 0 0 1-.496.198zm6.99 2.521-.891.253a1.644 1.644 0 0 0-.248-.433 1.197 1.197 0 0 0-.437-.353c-.185-.093-.422-.139-.71-.139-.396 0-.725.091-.988.273-.26.18-.391.408-.391.685 0 .247.09.442.269.584.18.143.46.262.84.358l.959.235c.577.14 1.007.354 1.29.643.283.286.424.654.424 1.105 0 .37-.106.701-.32.992a2.12 2.12 0 0 1-.882.69c-.378.168-.818.252-1.32.252-.658 0-1.203-.143-1.634-.429-.432-.286-.705-.703-.82-1.252l.942-.236c.09.348.259.608.508.782.252.174.582.26.988.26.462 0 .83-.098 1.1-.294.275-.199.413-.437.413-.714a.75.75 0 0 0-.236-.563c-.156-.154-.397-.269-.722-.345l-1.076-.252c-.591-.14-1.026-.357-1.303-.652-.275-.297-.412-.668-.412-1.113 0-.365.102-.687.307-.967.207-.28.489-.5.844-.66.36-.16.765-.239 1.22-.239.638 0 1.14.14 1.504.42.367.28.627.65.782 1.109zm5.165 5.01v-6.455h.958v1.008h.084c.134-.344.351-.612.651-.802.3-.194.66-.29 1.08-.29.426 0 .78.096 1.064.29.285.19.508.458.668.802h.067c.165-.333.413-.598.744-.794.33-.199.727-.298 1.19-.298.577 0 1.049.18 1.416.542.367.358.55.917.55 1.677v4.32h-.992v-4.32c0-.477-.13-.817-.39-1.022a1.45 1.45 0 0 0-.92-.306c-.455 0-.806.137-1.056.412-.25.271-.374.616-.374 1.033v4.203h-1.008v-4.421c0-.367-.12-.663-.358-.887-.238-.227-.545-.34-.92-.34-.258 0-.499.068-.723.206a1.55 1.55 0 0 0-.538.571 1.69 1.69 0 0 0-.202.837v4.034h-.991zm13.021.135c-.583 0-1.094-.139-1.534-.416a2.827 2.827 0 0 1-1.025-1.165c-.244-.498-.366-1.081-.366-1.748 0-.672.122-1.259.366-1.761a2.817 2.817 0 0 1 1.025-1.168c.44-.278.951-.416 1.534-.416.583 0 1.093.138 1.53.416.44.277.782.667 1.025 1.168.247.502.37 1.089.37 1.761 0 .667-.123 1.25-.37 1.748a2.785 2.785 0 0 1-1.025 1.165c-.437.277-.947.416-1.53.416zm0-.891c.443 0 .807-.114 1.093-.341a2 2 0 0 0 .634-.895c.138-.37.206-.77.206-1.202 0-.431-.068-.833-.206-1.206a2.029 2.029 0 0 0-.634-.904c-.286-.229-.65-.344-1.093-.344-.443 0-.807.115-1.093.344-.285.23-.497.531-.634.904a3.448 3.448 0 0 0-.206 1.206c0 .432.068.832.206 1.202.137.37.349.668.634.895.286.227.65.341 1.093.341zm5.544-3.127v3.883h-.992v-6.455h.958v1.008h.084a1.85 1.85 0 0 1 .69-.79c.308-.201.706-.302 1.193-.302.437 0 .82.089 1.148.269.327.176.582.445.764.807.183.358.274.812.274 1.361v4.102h-.992v-4.034c0-.508-.132-.903-.395-1.186-.264-.285-.625-.428-1.085-.428-.316 0-.599.068-.849.206a1.472 1.472 0 0 0-.584.601c-.143.263-.214.582-.214.958zm8.851-2.572v.84h-3.345v-.84h3.345zm-2.37-1.547h.992v6.153c0 .28.04.49.122.63a.63.63 0 0 0 .319.278c.132.045.27.067.416.067.109 0 .199-.006.269-.017l.168-.033.202.891a2.01 2.01 0 0 1-.282.075 2.07 2.07 0 0 1-.458.042 2 2 0 0 1-.823-.18 1.639 1.639 0 0 1-.665-.551c-.173-.247-.26-.558-.26-.933v-6.422zm5.106 4.119v3.883h-.992v-8.607h.992v3.16h.084c.151-.333.378-.598.681-.794.305-.199.711-.298 1.218-.298.44 0 .825.088 1.156.264.331.174.587.442.769.803.185.359.278.815.278 1.37v4.102h-.992v-4.034c0-.513-.133-.91-.4-1.19-.263-.283-.629-.424-1.096-.424-.325 0-.617.068-.875.206a1.502 1.502 0 0 0-.605.601c-.146.263-.218.582-.218.958z"/><rect width="329.691" height="214.811" x="1.655" y="34.155" stroke="url(#f)" stroke-width="1.691" rx="27.897"/><defs><linearGradient id="a" x1="7.104" x2="147.716" y1="-26.2" y2="223.6" gradientUnits="userSpaceOnUse"><stop offset=".064" stop-color="#1A1A1A"/><stop offset=".499" stop-color="#101010"/><stop offset="1" stop-color="#101010" stop-opacity=".24"/></linearGradient><linearGradient id="b" x1="35.112" x2="303.807" y1="-31.394" y2="107.899" gradientUnits="userSpaceOnUse"><stop stop-color="#2F2F2F"/><stop offset="1" stop-color="#2F2F2F" stop-opacity=".1"/></linearGradient><linearGradient id="c" x1="-25.874" x2="100.138" y1="-10.2" y2="259.978" gradientUnits="userSpaceOnUse"><stop offset=".064" stop-color="#1A1A1A"/><stop offset=".499" stop-color="#101010"/><stop offset="1" stop-color="#101010" stop-opacity=".24"/></linearGradient><linearGradient id="d" x1="7.929" x2="303.618" y1="-15.394" y2="169.607" gradientUnits="userSpaceOnUse"><stop stop-color="#2F2F2F"/><stop offset="1" stop-color="#2F2F2F" stop-opacity=".1"/></linearGradient><linearGradient id="e" x1="-58.852" x2="149.757" y1="-7.624" y2="351.312" gradientUnits="userSpaceOnUse"><stop offset=".064" stop-color="#1A1A1A"/><stop offset=".499" stop-color="#101010"/><stop offset="1" stop-color="#101010" stop-opacity=".24"/></linearGradient><linearGradient id="f" x1="-19.255" x2="365.674" y1="-15.206" y2="178.064" gradientUnits="userSpaceOnUse"><stop stop-color="#2F2F2F"/><stop offset="1" stop-color="#2F2F2F" stop-opacity=".1"/></linearGradient></defs></svg>